<svg width="511" height="511" viewBox="0 0 511 511" fill="none" xmlns="http://www.w3.org/2000/svg">
<path d="M255.502 1.06396C114.393 1.06396 0 115.457 0 256.565C0 383.123 92.1133 487.934 212.889 508.23V309.87H151.255V238.488H212.889V185.854C212.889 124.784 250.189 91.504 304.676 91.504C330.772 91.504 353.199 93.4485 359.709 94.305V158.14L321.918 158.158C292.293 158.158 286.581 172.233 286.581 192.895V238.452H357.271L348.051 309.833H286.581V509.937C412.995 494.551 511 387.07 511 256.492C511 115.457 396.607 1.06396 255.502 1.06396Z" fill="white"/>
</svg>
