<svg width="511" height="511" viewBox="0 0 511 511" fill="none" xmlns="http://www.w3.org/2000/svg">
<path d="M255.5 511C114.975 511 0 396.025 0 255.5C0 114.975 114.975 0 255.5 0C396.025 0 511 114.975 511 255.5C511 396.025 396.025 511 255.5 511ZM255.5 25.55C129.028 25.55 25.55 129.028 25.55 255.5C25.55 381.972 129.028 485.45 255.5 485.45C381.972 485.45 485.45 381.972 485.45 255.5C485.45 129.028 381.972 25.55 255.5 25.55Z" fill="white"/>
<path fill-rule="evenodd" clip-rule="evenodd" d="M213.344 307.875L332.152 200.565C337.262 195.455 330.874 194.177 324.487 198.01L178.852 289.99L116.254 270.827C102.202 266.995 102.202 256.775 118.809 250.387L365.367 155.852C376.864 150.742 387.084 158.407 383.252 176.292L341.094 374.305C338.539 388.357 329.597 392.19 318.099 385.802L254.224 338.535L223.564 367.917C219.732 371.75 214.622 371.75 214.622 367.917L213.344 307.875Z" fill="white"/>
</svg>
