<svg width="576" height="512" viewBox="0 0 576 512" fill="none" xmlns="http://www.w3.org/2000/svg">
<path d="M528.12 301.319L575.393 93.319C578.806 78.301 567.391 64 551.99 64H159.208L150.042 19.19C147.758 8.021 137.93 0 126.529 0H24C10.745 0 0 10.745 0 24V40C0 53.255 10.745 64 24 64H93.883L164.131 407.435C147.325 417.1 136 435.222 136 456C136 486.928 161.072 512 192 512C222.928 512 248 486.928 248 456C248 440.326 241.553 426.165 231.176 416H440.823C430.447 426.165 424 440.326 424 456C424 486.928 449.072 512 480 512C510.928 512 536 486.928 536 456C536 433.828 523.112 414.668 504.421 405.595L509.938 381.319C513.351 366.301 501.936 352 486.535 352H218.117L211.572 320H504.717C515.923 320 525.637 312.246 528.12 301.319Z" fill="white"/>
</svg>
