<svg width="26" height="20" viewBox="0 0 26 20" fill="none" xmlns="http://www.w3.org/2000/svg">
<path d="M0.542739 1.58214C4.11114 4.60418 10.3726 9.92088 12.2129 11.5786C12.4599 11.8024 12.7249 11.9161 13 11.9161C13.2745 11.9161 13.539 11.8034 13.7855 11.5808C15.6274 9.92139 21.8888 4.60418 25.4573 1.58214C25.6795 1.39435 25.7133 1.06427 25.5335 0.834691C25.1177 0.30418 24.4977 0 23.8333 0H2.16667C1.5023 0 0.882313 0.30418 0.466567 0.834742C0.2867 1.06427 0.320571 1.39435 0.542739 1.58214Z" fill="#8FD0FF"/>
<path d="M25.6858 3.21984C25.4938 3.13047 25.2679 3.16165 25.1082 3.29815C21.1509 6.65286 16.1003 10.9529 14.5113 12.3848C13.6194 13.1899 12.3816 13.1899 11.4876 12.3837C9.79387 10.8576 4.12222 6.03607 0.89182 3.2981C0.730996 3.1616 0.504613 3.13148 0.314184 3.21979C0.122738 3.30871 0 3.5002 0 3.71125V17.3333C0 18.5283 0.971699 19.5 2.16668 19.5H23.8334C25.0283 19.5 26 18.5283 26 17.3333V3.71125C26 3.5002 25.8773 3.3082 25.6858 3.21984Z" fill="#8FD0FF"/>
</svg>
