<svg width="22" height="22" viewBox="0 0 22 22" fill="none" xmlns="http://www.w3.org/2000/svg">
<path d="M20.2632 14.4853C18.9061 14.4853 17.5769 14.2734 16.317 13.8577C15.7022 13.6458 15.004 13.809 14.5999 14.2213L12.1023 16.1075C9.23653 14.5779 7.40243 12.745 5.89371 9.90001L7.72895 7.46148C8.19095 6.99948 8.35655 6.32325 8.15855 5.6899C7.73937 4.422 7.52634 3.09158 7.52634 1.73684C7.52634 0.779246 6.74709 0 5.7895 0H1.73684C0.779246 0 0 0.779246 0 1.73684C0 12.9094 9.09064 22 20.2632 22C21.2208 22 22 21.2208 22 20.2632V16.2221C22 15.2645 21.2208 14.4853 20.2632 14.4853Z" fill="#8FD0FF"/>
</svg>
